<svg xmlns="http://www.w3.org/2000/svg" viewBox="0 0 416.27 256.3"><g id="Ebene_2" data-name="Ebene 2"><g id="Ebene_1-2" data-name="Ebene 1"><path d="M140.56,113.44,80,181.67c-7,7.85-14,15.61-20.81,23.61-1.3,1.52-1.55,3.94-2.28,5.95,2.16-.58,4.84-.52,6.39-1.82q46.94-39.28,93.65-78.86c1.39-1.17,2.82-2.29,4.38-3.55,8,5.05,15.66,10.28,23.69,14.95,15.84,9.22,31.94,9.26,47.8,0,8.05-4.67,15.77-9.9,23.9-15.05q20.87,17.59,41.64,35.12c18.33,15.47,36.6,31,55.07,46.32,2,1.63,5,1.94,7.58,2.86-1.08-2.38-1.66-5.2-3.31-7.08q-38.18-43.28-76.59-86.35c-1.2-1.35-2.35-2.74-3.76-4.38,11.31-7.55,22.42-14.86,33.41-22.33q46.26-31.47,92.46-63a38,38,0,0,1,7.46-3.95c3.14-1.24,5.22-.17,5.29,3.54,0,1.17,0,2.33,0,3.5,0,67-.27,134,.25,201,.09,11.65-13,24.2-24.3,24.16q-183-.5-365.94-.21c-15,0-26-11-26-26v-197c0-1.66-.08-3.34.07-5,.33-3.57,2.31-5.24,5.78-4a33.83,33.83,0,0,1,7.53,3.78q57,38.35,113.86,76.83C131.51,107.54,135.83,110.32,140.56,113.44Z"/><path d="M209.05.09H398.54A46.84,46.84,0,0,1,405,.35c7.42,1,9.88,6.64,5,12.4-2.61,3.07-6.32,5.41-9.91,7.37q-48,26.25-96.05,52.23Q268.52,91.66,233,111c-16.05,8.74-32.07,8.67-48.1,0Q101.15,65.45,17.38,19.89c-3-1.66-6.47-3.4-8.41-6.06A13.66,13.66,0,0,1,6.46,4.34c.32-1.73,4.5-3.06,7.15-4,1.8-.63,4-.27,6-.27Z"/></g></g></svg>